<?xml version="1.0" encoding="utf-8"?>
<!-- Generator: Adobe Illustrator 25.0.1, SVG Export Plug-In . SVG Version: 6.00 Build 0)  -->
<svg version="1.1" id="圖層_1" xmlns="http://www.w3.org/2000/svg" xmlns:xlink="http://www.w3.org/1999/xlink" x="0px" y="0px"
	 viewBox="0 0 393.34 181.38" style="enable-background:new 0 0 393.34 181.38;" xml:space="preserve">
<style type="text/css">
	.st0{fill:#266E38;}
	.st1{fill:#DDB11A;}
</style>
<g>
	<path class="st0" d="M0,0c65.75,0,131.43,0,197.1,0c0.01,0.06,0.02,0.13,0.03,0.19c-4.55,0.62-9.12,1.17-13.66,1.88
		c-29.06,4.5-57,12.41-82.41,27.73c-12.65,7.63-23.9,16.88-32.27,29.26c-7.14,10.56-10.97,22.11-10.16,34.97
		c0.67,10.67,4.53,20.23,10.58,28.94c9.25,13.34,21.74,23,35.68,30.92c20.59,11.7,42.85,18.8,65.99,23.26
		c7.71,1.48,15.51,2.43,23.27,3.65c0.78,0.12,1.54,0.35,2.62,0.61c-65.74,0-131.16,0-196.78,0C0,120.91,0,60.51,0,0z"/>
	<path class="st1" d="M303.55,135.04c0.72-3.5,1.34-6.68,2.02-9.85c5.51-25.94,11.03-51.87,16.53-77.81
		c0.27-1.29,0.51-2.19,2.26-2.19c22.49,0.07,44.99,0.04,67.48,0.05c0.43,0,0.86,0.05,1.47,0.09c0,0.55,0.08,1.04-0.01,1.5
		c-3.56,16.75-7.17,33.5-10.66,50.26c-0.36,1.73-1.13,2-2.63,2c-15.8-0.04-31.59-0.02-47.39-0.02c-0.93,0-1.86,0-2.88,0
		c-1.68,7.9-3.31,15.57-4.94,23.24c-0.78,3.7-1.52,7.41-2.39,11.08c-0.15,0.62-0.86,1.57-1.32,1.58
		C315.35,135.08,309.62,135.04,303.55,135.04z M333.08,83.28c0.49,0.14,0.69,0.25,0.9,0.25c10.47,0.01,20.94-0.01,31.41,0.02
		c1.17,0,1.61-0.39,1.84-1.57c0.77-3.99,1.69-7.94,2.54-11.92c0.64-3.02,1.25-6.05,1.91-9.24c-11.43,0-22.53,0-33.82,0
		C336.27,68.29,334.68,75.72,333.08,83.28z"/>
	<path class="st1" d="M257.49,119.47c12.27,0,24.38,0,36.77,0c-1.09,5.04-2.13,9.71-3.08,14.4c-0.32,1.57-1.45,1.16-2.38,1.16
		c-12.52,0.02-25.05,0.01-37.58,0.02c-4.37,0-8.74,0.01-13.11,0c-0.78,0-1.56-0.07-2.61-0.12c0.67-3.26,1.28-6.31,1.93-9.34
		c5.5-25.9,11.03-51.8,16.48-77.71c0.41-1.95,1.05-2.72,3.23-2.71c16.38,0.11,32.77,0.06,49.15,0.06c0.78,0,1.56,0,2.67,0
		c-1.08,5.13-2.04,9.95-3.19,14.73c-0.1,0.41-1.42,0.73-2.17,0.74c-10.56,0.05-21.12,0.06-31.68,0c-1.45-0.01-2.19,0.27-2.53,1.87
		c-3.84,18.38-7.76,36.74-11.66,55.11C257.64,118.16,257.6,118.65,257.49,119.47z"/>
	<path class="st1" d="M193.61,46.43c-1.06,5.02-1.99,9.71-3.12,14.35c-0.13,0.51-1.43,1.04-2.2,1.05
		c-7.21,0.08-14.42,0.13-21.62-0.01c-2.04-0.04-2.7,0.66-3.1,2.56c-4.89,23.28-9.89,46.54-14.78,69.82
		c-0.33,1.56-0.92,2.01-2.44,1.98c-4.73-0.09-9.47-0.03-14.2-0.04c-0.7,0-1.4-0.07-2.34-0.13c5.26-24.79,10.46-49.31,15.73-74.17
		c-9.16,0-18,0-27.17,0c1.09-5.07,2.08-9.82,3.15-14.55c0.08-0.35,0.65-0.71,1.06-0.82c0.55-0.14,1.16-0.05,1.74-0.05
		c22.14,0,44.27,0,66.41,0C191.59,46.43,192.44,46.43,193.61,46.43z"/>
	<path class="st1" d="M193.51,134.92c1.18-5.59,2.31-10.91,3.44-16.24c4.98-23.43,9.95-46.86,14.93-70.29
		c0.67-3.15,0.67-3.15,3.89-3.15c5,0,10.01,0,15.34,0c-0.54,2.63-1,4.96-1.49,7.28c-5.61,26.42-11.21,52.85-16.86,79.27
		c-0.79,3.69-0.07,3.25-3.98,3.27c-4.22,0.02-8.45,0.02-12.67,0.01C195.33,135.05,194.55,134.97,193.51,134.92z"/>
</g>
</svg>
