<?xml version="1.0" encoding="utf-8"?>
<!-- Generator: Adobe Illustrator 25.0.1, SVG Export Plug-In . SVG Version: 6.00 Build 0)  -->
<svg version="1.1" id="圖層_1" xmlns="http://www.w3.org/2000/svg" xmlns:xlink="http://www.w3.org/1999/xlink" x="0px" y="0px"
	 viewBox="0 0 455.49 63.68" style="enable-background:new 0 0 455.49 63.68;" xml:space="preserve">
<style type="text/css">
	.st0{fill:#FFFFFF;}
	.st1{fill:#C6000B;}
</style>
<g>
	<g>
		<g>
			<path class="st0" d="M102.89,1.25l1.14,2.93c-0.9,0.31-2.3,0.63-4.18,0.96l0.11,3.35h3.07v3.07h-3l0.11,3.75h3.18v2.93h-3.07
				l0.11,3.93h3.93V1.39h14.1v20.77h4.5l0.14-3.93h-3.39v-3.07h3.46l0.11-3.6h-3.57V8.64h3.68l0.11-3.5h-3.93V1.93h7.1l-0.64,20.24
				h1.93v3.07H95.11v-3.07h2.03l-0.5-19.52C98.62,2.45,100.7,1.99,102.89,1.25z M105.82,25.62l2.39,2.11
				c-2.78,1.9-6.27,3.62-10.46,5.14l-2.25-2.93C99.33,28.8,102.77,27.36,105.82,25.62z M107.21,22.16h8.24V4.32h-8.24V22.16z
				 M108.07,6h6.67v2.5h-6.67V6z M108.35,10.31h6v10.03h-6V10.31z M112.24,17.84v-5.03h-1.82v5.03H112.24z M116.56,25.48
				c4.07,1.21,7.79,2.66,11.17,4.35l-1.96,2.93c-3.52-2.02-7.15-3.6-10.89-4.75L116.56,25.48z"/>
			<path class="st0" d="M147.29,0.39l1.53,2.78c-1.86,0.83-4,1.45-6.42,1.86V9.6h6.42v3.07h-6.42v0.93c2.14,1.9,4.28,4.01,6.42,6.32
				l-2.11,3.07c-1.71-2.38-3.15-4.23-4.32-5.57v15.2h-3.18V17.45c-1.55,3.69-3.37,6.79-5.46,9.31l-2.07-3.07
				c2.83-3.12,5.06-6.79,6.67-11.03h-6.14V9.6h6.99V5.42c-1.81,0.19-3.72,0.29-5.75,0.29l-0.96-2.93
				C138.32,2.78,143.24,1.99,147.29,0.39z M163.17,2.36v29.12h-3.18v-2.78h-7v3.21h-3.21V2.36H163.17z M153,25.77h7V5.28h-7V25.77z"
				/>
			<path class="st0" d="M173.27,0.39h3.5v13.24c0,4.28-0.33,7.82-1,10.6c-0.64,2.78-1.89,5.63-3.75,8.53l-2.93-2.53
				c1.57-2.21,2.68-4.59,3.32-7.14c0.57-2.07,0.86-5.22,0.86-9.46V0.39z M184.3,1.11h3.46v29.12h-3.46V1.11z M195.86,0.25h3.5v32.51
				h-3.5V0.25z"/>
			<path class="st0" d="M217.95,0l3.61,0.39c-0.31,1.14-0.75,2.21-1.32,3.21h14.17v28.59h-3.35v-1.82h-20.09v1.82h-3.32V3.6h9.1
				C217.28,2.46,217.69,1.26,217.95,0z M210.96,10.85h20.09V6.82h-20.09V10.85z M210.96,18.81h20.09v-4.75h-20.09V18.81z
				 M210.96,27.16h20.09v-5.14h-20.09V27.16z"/>
			<path class="st0" d="M257.46,0.82l1.39,2.5c-1.9,0.31-4.09,0.55-6.57,0.71v2.36h7.24v2.64h-7.24v1.82h6.99v11.03h-6.99v2.07h6.28
				v2.39h-6.28v2.75c2.28-0.19,4.38-0.42,6.28-0.68v1.18c2.14-3.19,3.66-6.59,4.57-10.21c0.64-2.33,1.05-5.59,1.21-9.78h-3.82V6.67
				h3.89c0-0.55,0-1.11,0-1.68V0.25h3.07V5c0,0.59,0,1.15,0,1.68h6.42c0,12.09-0.13,19.25-0.39,21.48
				c-0.21,1.74-0.59,2.88-1.14,3.43c-0.62,0.69-1.78,1.03-3.5,1.03c-0.76,0-1.64-0.05-2.64-0.14l-0.57-3.5
				c1.05,0.19,2.12,0.29,3.21,0.29c0.98,0,1.51-0.73,1.61-2.18c0.19-1.78,0.31-7.61,0.36-17.49h-3.46
				c-0.19,4.14-0.63,7.69-1.32,10.64c-0.9,4-2.65,8.08-5.25,12.24l-2.25-1.89v0.36c-3.16,0.55-8.7,1.06-16.6,1.53l-0.43-2.93
				c2.78-0.05,5.39-0.14,7.82-0.29v-2.93h-6.28v-2.39h6.28v-2.07h-6.53V10.85h6.53V9.03h-8.07V6.39h8.07V4.21
				c-1.95,0.07-4.04,0.11-6.28,0.11l-0.82-2.68C248.23,1.64,253.29,1.37,257.46,0.82z M245.89,15.45h3.46V13.1h-3.46V15.45z
				 M249.36,19.63v-2.21h-3.46v2.21H249.36z M252.28,13.1v2.36h3.93V13.1H252.28z M256.21,19.63v-2.21h-3.93v2.21H256.21z"/>
			<path class="st0" d="M286.08,0l3.21,1.39c-1,2.9-2.02,5.37-3.07,7.39v23.98h-3.5V14.24c-1.14,1.52-2.39,3.05-3.75,4.57
				l-1.25-4.32c1.71-2.02,3.22-4.09,4.53-6.21C283.59,6.38,284.87,3.62,286.08,0z M291.5,0.25h3.5V13.2
				c5.07-2.47,9.3-5.26,12.71-8.35l2.07,3.07c-4.23,3.57-9.16,6.57-14.77,8.99v11.1c0,0.83,0.42,1.25,1.25,1.25h8.24
				c0.76,0,1.32-0.29,1.68-0.86c0.4-0.59,0.68-3.33,0.82-8.21l3.36,0.96c-0.36,5.57-0.93,8.83-1.71,9.78
				c-0.67,1.02-1.92,1.53-3.75,1.53H295c-1.07,0-1.92-0.3-2.53-0.89c-0.64-0.64-0.96-1.46-0.96-2.46V0.25z"/>
			<path class="st0" d="M315.27,3.89h11.85c0.57-1.14,1.13-2.4,1.68-3.78l3.64,0.43c-0.43,1.21-0.88,2.33-1.36,3.35h16.13V7.1
				h-17.81c-0.64,1.09-1.32,2.12-2.03,3.07h16.92v18.95c0,1.05-0.27,1.87-0.82,2.46c-0.55,0.59-1.44,0.89-2.68,0.89h-5.71
				l-0.71-3.07l5.46,0.14c0.64,0,0.96-0.33,0.96-1v-3.32h-15.63v7.39h-3.46V16.38c-1.59,1.4-3.32,2.72-5.17,3.96l-2.21-2.78
				c3.62-2.45,6.65-5.11,9.1-7.99c0.64-0.71,1.27-1.53,1.89-2.46h-10.03V3.89z M325.16,16.17h15.63v-2.93h-15.63V16.17z
				 M325.16,22.31h15.63v-3.35h-15.63V22.31z"/>
			<path class="st0" d="M352.42,1.39h11.13v2.5c-0.76,2.71-1.64,5.59-2.64,8.64c0.9,1.62,1.55,3.08,1.93,4.39
				c0.48,1.33,0.71,2.47,0.71,3.43c-0.05,1.86-0.43,3.19-1.14,4c-0.79,0.95-2.5,1.43-5.14,1.43l-0.96-3.35
				c0.59,0.1,1.15,0.14,1.68,0.14c0.74,0,1.27-0.17,1.61-0.5c0.4-0.26,0.61-0.83,0.61-1.71c0-1.07-0.17-2.08-0.5-3.03
				c-0.38-1.21-1.09-2.66-2.14-4.35c1.24-3.36,2.12-6.19,2.64-8.49h-4.46v28.3h-3.32V1.39z M381.26,1.25V16.7h-6.89
				c0.43,1.78,0.98,3.37,1.64,4.75c1.67-0.9,3.24-2.2,4.71-3.89l2.5,2.36c-1.67,1.78-3.52,3.16-5.57,4.14
				c1.74,2.26,4.01,4.14,6.82,5.64l-1.82,3.07c-3.55-2.21-6.19-4.68-7.92-7.39c-1.64-2.4-2.81-5.29-3.5-8.67h-3.35v11.28
				c1.9-0.48,3.85-1.12,5.85-1.93v3.35c-3.47,1.33-7.33,2.4-11.56,3.21l-0.43-3.5c0.98-0.1,1.95-0.23,2.93-0.39V1.25H381.26z
				 M367.88,7.39h10.17V4.18h-10.17V7.39z M367.88,13.78h10.17v-3.46h-10.17V13.78z"/>
			<path class="st0" d="M396.11,1.53l3.5,1.25c-1.29,3.59-2.4,6.19-3.36,7.78c-0.9,1.76-2.49,3.85-4.75,6.28l-2.93-2.5
				c1.95-1.97,3.52-3.91,4.71-5.82C394.38,6.58,395.32,4.25,396.11,1.53z M401,10.99l3.75,1.39c-2.26,6.02-4.57,10.92-6.92,14.7
				c5.21-0.17,9.92-0.46,14.13-0.89c-1.07-2.43-2.26-4.79-3.57-7.1l3.46-1.14c2.45,4.02,4.64,8.62,6.57,13.81l-3.89,1
				c-0.43-1.24-0.87-2.44-1.32-3.6c-4.78,0.64-12.43,1.24-22.95,1.78l-0.57-3.64c1.38-0.02,2.71-0.05,4-0.07
				C396.04,23.42,398.47,18.01,401,10.99z M402.67,0.82h9.89c1.31,4.4,4.05,8.54,8.21,12.42l-2.36,3.32
				c-2.04-1.86-3.7-3.75-4.96-5.67c-1.48-2.09-2.67-4.43-3.57-7h-7.21V0.82z"/>
			<path class="st0" d="M425.3,1.64h30.12v27.19c0,1.31-0.38,2.27-1.14,2.89c-0.64,0.59-1.7,0.89-3.18,0.89h-4.89l-0.71-3.5
				l4.89,0.14c0.93-0.02,1.39-0.54,1.39-1.53V4.85H425.3V1.64z M425.73,8.21h20.63v3.07h-20.63V8.21z M427.41,14.77h17.56v11.56
				h-17.56V14.77z M441.47,23.27v-5.42h-10.6v5.42H441.47z"/>
		</g>
		<g>
			<path class="st0" d="M97.82,53.77v7.6h-2.38V43h2.38v8.39h5.67V43h2.38v18.36h-2.38v-7.6H97.82z"/>
			<path class="st0" d="M113.97,51.94c-1.3-0.44-2.35-1.06-3.16-1.86c-0.81-0.81-1.21-1.81-1.21-3c0-1.17,0.42-2.18,1.26-3.02
				c0.84-0.84,1.85-1.26,3.05-1.26c1.18,0,2.19,0.42,3.03,1.25c0.47,0.46,0.87,1.19,1.19,2.19l-2.16,0.85
				c-0.26-0.7-0.5-1.16-0.71-1.38c-0.38-0.37-0.83-0.55-1.35-0.55c-0.54,0-0.99,0.19-1.37,0.56c-0.38,0.37-0.56,0.82-0.56,1.36
				c0,0.54,0.19,0.99,0.56,1.37c0.42,0.41,1,0.79,1.74,1.14c1.44,0.47,2.66,1.2,3.66,2.2c1.12,1.11,1.69,2.46,1.69,4.04
				c0,1.58-0.56,2.94-1.68,4.06c-1.12,1.12-2.47,1.68-4.04,1.68c-1.58,0-2.93-0.56-4.05-1.69c-0.89-0.9-1.46-2.13-1.7-3.71
				l2.31-0.84c0.15,1.35,0.5,2.31,1.07,2.88c0.66,0.66,1.45,0.99,2.38,0.99c0.93,0,1.72-0.33,2.38-0.99
				c0.66-0.66,0.99-1.45,0.99-2.39c0-0.93-0.33-1.72-0.99-2.38C115.65,52.82,114.88,52.32,113.97,51.94z"/>
			<path class="st0" d="M124.54,43v18.36h-2.38V43H124.54z"/>
			<path class="st0" d="M128.22,43h2.17l7.57,13.1V43h2.39v18.36h-2.08L130.6,48.1v13.26h-2.38V43z"/>
			<path class="st0" d="M159.37,58.85c-1.89,1.81-4.05,2.71-6.48,2.71c-2.59,0-4.8-0.91-6.63-2.74c-1.83-1.83-2.74-4.04-2.74-6.63
				c0-2.59,0.91-4.8,2.74-6.63c1.83-1.84,4.04-2.75,6.63-2.75c2.42,0,4.72,0.99,6.9,2.97L158,47.39c-1.64-1.45-3.34-2.18-5.12-2.18
				c-1.92,0-3.56,0.68-4.93,2.04c-1.37,1.36-2.05,3.01-2.05,4.93c0,1.94,0.68,3.58,2.05,4.95c1.37,1.36,3.01,2.04,4.93,2.04
				c1.65,0,3.02-0.44,4.11-1.31v-5.54h2.38V58.85z"/>
			<path class="st0" d="M173.43,53.77v7.6h-2.38V43h2.38v8.39h5.67V43h2.38v18.36h-2.38v-7.6H173.43z"/>
			<path class="st0" d="M194.81,43v2.38h-7.52v5.61h7.52v2.38h-7.52v5.61h7.52v2.39h-9.89V43H194.81z"/>
			<path class="st0" d="M220.3,56.99l1.78,1.6c-2.17,1.98-4.47,2.97-6.9,2.97c-2.59,0-4.8-0.91-6.63-2.74
				c-1.83-1.83-2.74-4.04-2.74-6.63c0-2.59,0.91-4.8,2.74-6.63c1.83-1.84,4.04-2.75,6.63-2.75c2.42,0,4.72,0.99,6.9,2.97l-1.78,1.62
				c-1.64-1.45-3.34-2.18-5.12-2.18c-1.92,0-3.56,0.68-4.93,2.04c-1.37,1.36-2.05,3.01-2.05,4.93c0,1.94,0.68,3.58,2.05,4.95
				c1.37,1.36,3.01,2.04,4.93,2.04C216.95,59.17,218.66,58.44,220.3,56.99z"/>
			<path class="st0" d="M227.31,53.77v7.6h-2.38V43h2.38v8.39h5.67V43h2.38v18.36h-2.38v-7.6H227.31z"/>
			<path class="st0" d="M248.89,43h2.39v12.93c-0.21,1.48-0.81,2.72-1.82,3.74c-1.22,1.22-2.7,1.84-4.42,1.84
				c-1.72,0-3.19-0.61-4.41-1.83c-1.22-1.22-1.83-2.69-1.83-4.41V43h2.39v12.27c0,1.06,0.38,1.96,1.13,2.71
				c0.75,0.75,1.66,1.13,2.73,1.13c1.07,0,1.98-0.37,2.73-1.12c0.75-0.75,1.12-1.66,1.12-2.72V43z"/>
			<path class="st0" d="M261.08,43l6.68,18.36h-2.52l-2.36-6.49H258l-2.35,6.49h-2.54L259.79,43H261.08z M262.01,52.49l-1.57-4.3
				l-1.56,4.3H262.01z"/>
			<path class="st0" d="M270.05,43h2.17l7.57,13.1V43h2.39v18.36h-2.08l-7.68-13.26v13.26h-2.38V43z"/>
			<path class="st0" d="M300.33,43l6.68,18.36h-2.52l-2.36-6.49h-4.87l-2.35,6.49h-2.54L299.05,43H300.33z M301.26,52.49l-1.57-4.3
				l-1.56,4.3H301.26z"/>
			<path class="st0" d="M318.94,43h2.39v12.93c-0.21,1.48-0.82,2.72-1.82,3.74c-1.22,1.22-2.7,1.84-4.42,1.84
				c-1.72,0-3.19-0.61-4.41-1.83c-1.22-1.22-1.83-2.69-1.83-4.41V43h2.39v12.27c0,1.06,0.38,1.96,1.13,2.71
				c0.75,0.75,1.66,1.13,2.73,1.13c1.07,0,1.98-0.37,2.73-1.12c0.75-0.75,1.12-1.66,1.12-2.72V43z"/>
			<path class="st0" d="M330.29,45.38v15.98h-2.39V45.38h-4.28V43h10.95v2.38H330.29z"/>
			<path class="st0" d="M351.78,45.52c1.84,1.84,2.75,4.05,2.75,6.64c0,2.59-0.92,4.81-2.75,6.64c-1.84,1.84-4.05,2.75-6.64,2.75
				c-2.59,0-4.81-0.92-6.64-2.75c-1.84-1.84-2.75-4.05-2.75-6.64c0-2.59,0.92-4.81,2.75-6.64c1.84-1.84,4.05-2.75,6.64-2.75
				C347.73,42.76,349.95,43.68,351.78,45.52z M345.14,45.16c-1.94,0-3.59,0.68-4.95,2.05c-1.37,1.37-2.05,3.02-2.05,4.95
				c0,1.94,0.68,3.59,2.05,4.96c1.37,1.37,3.02,2.05,4.95,2.05c1.94,0,3.59-0.68,4.95-2.05c1.37-1.37,2.05-3.02,2.05-4.96
				c0-1.94-0.68-3.59-2.05-4.95C348.72,45.84,347.07,45.16,345.14,45.16z"/>
			<path class="st0" d="M380.03,56.99l1.78,1.6c-2.17,1.98-4.47,2.97-6.9,2.97c-2.59,0-4.8-0.91-6.63-2.74
				c-1.83-1.83-2.74-4.04-2.74-6.63c0-2.59,0.91-4.8,2.74-6.63c1.83-1.84,4.04-2.75,6.63-2.75c2.42,0,4.72,0.99,6.9,2.97l-1.78,1.62
				c-1.64-1.45-3.34-2.18-5.12-2.18c-1.92,0-3.56,0.68-4.93,2.04c-1.37,1.36-2.05,3.01-2.05,4.93c0,1.94,0.68,3.58,2.05,4.95
				c1.37,1.36,3.01,2.04,4.93,2.04C376.69,59.17,378.4,58.44,380.03,56.99z"/>
			<path class="st0" d="M400.42,45.52c1.84,1.84,2.75,4.05,2.75,6.64c0,2.59-0.92,4.81-2.75,6.64c-1.84,1.84-4.05,2.75-6.64,2.75
				c-2.59,0-4.81-0.92-6.64-2.75c-1.84-1.84-2.75-4.05-2.75-6.64c0-2.59,0.92-4.81,2.75-6.64c1.84-1.84,4.05-2.75,6.64-2.75
				C396.37,42.76,398.59,43.68,400.42,45.52z M393.78,45.16c-1.94,0-3.59,0.68-4.95,2.05c-1.37,1.37-2.05,3.02-2.05,4.95
				c0,1.94,0.68,3.59,2.05,4.96c1.37,1.37,3.02,2.05,4.95,2.05c1.93,0,3.59-0.68,4.95-2.05c1.37-1.37,2.05-3.02,2.05-4.96
				c0-1.94-0.68-3.59-2.05-4.95C397.37,45.84,395.72,45.16,393.78,45.16z"/>
			<path class="st0" d="M407.33,58.67c0.33,0.32,0.49,0.71,0.49,1.17c0,0.47-0.16,0.87-0.49,1.19s-0.72,0.48-1.18,0.48
				c-0.45,0-0.84-0.16-1.17-0.48s-0.49-0.72-0.49-1.19c0-0.46,0.16-0.85,0.49-1.17s0.72-0.48,1.17-0.48
				C406.61,58.18,407,58.34,407.33,58.67z"/>
			<path class="st0" d="M413.99,58.17l-2.65,5.51h-2.26l1.47-5.51H413.99z"/>
			<path class="st0" d="M416.84,61.36V43h2.38v15.97h6.56v2.39H416.84z"/>
			<path class="st0" d="M433.1,45.38v15.98h-2.39V45.38h-4.28V43h10.95v2.38H433.1z"/>
			<path class="st0" d="M441.42,43c2.98,0.02,5.31,0.86,6.98,2.54c1.83,1.84,2.74,4.06,2.74,6.64c0,2.59-0.91,4.81-2.74,6.64
				c-1.67,1.68-3.99,2.52-6.98,2.54h-1.74V43H441.42z M442.05,45.42v13.53c1.89,0,3.44-0.61,4.65-1.82
				c1.36-1.36,2.04-3.01,2.04-4.95c0-1.93-0.68-3.58-2.04-4.95C445.49,46.03,443.94,45.42,442.05,45.42z"/>
			<path class="st0" d="M455,58.67c0.33,0.32,0.49,0.71,0.49,1.17c0,0.47-0.16,0.87-0.49,1.19c-0.33,0.32-0.72,0.48-1.18,0.48
				c-0.45,0-0.84-0.16-1.17-0.48c-0.33-0.32-0.49-0.72-0.49-1.19c0-0.46,0.16-0.85,0.49-1.17c0.33-0.32,0.72-0.48,1.17-0.48
				C454.29,58.18,454.68,58.34,455,58.67z"/>
		</g>
	</g>
	<g>
		<g>
			<g>
				<path class="st0" d="M23.6,50.02v-1h2.89v14.3H23.6v-1.79c-1.39,1.43-3,2.15-4.83,2.15c-2.18,0-4.05-0.77-5.59-2.31
					c-1.54-1.54-2.31-3.4-2.31-5.59c0-2.18,0.77-4.05,2.31-5.59c1.54-1.54,3.4-2.31,5.59-2.31C20.6,47.88,22.21,48.59,23.6,50.02z
					 M23.6,56.84v-2.11c-0.17-0.9-0.61-1.71-1.33-2.44c-0.97-0.96-2.14-1.44-3.5-1.44c-1.37,0-2.54,0.48-3.51,1.44
					c-0.97,0.96-1.45,2.13-1.45,3.5c0,1.36,0.48,2.52,1.45,3.49c0.97,0.97,2.14,1.45,3.51,1.45c1.36,0,2.53-0.48,3.5-1.44
					C22.99,58.55,23.43,57.73,23.6,56.84z"/>
				<path class="st0" d="M36.72,63.5c-1.8,0-3.26-0.55-4.36-1.65c-1.1-1.1-1.67-2.48-1.69-4.14v-8.69h2.89v8.58
					c0,0.82,0.3,1.53,0.9,2.12c0.6,0.59,1.35,0.89,2.25,0.89c0.82,0,1.54-0.29,2.15-0.88c0.61-0.59,0.91-1.3,0.91-2.13v-8.58h2.87
					v8.69c-0.03,1.66-0.59,3.04-1.68,4.14C39.85,62.95,38.44,63.5,36.72,63.5z"/>
				<path class="st0" d="M48.54,49.02v-5.36h2.87v5.36h2.57v2.87h-2.57v11.41h-2.87V51.89h-2.57v-2.87H48.54z"/>
				<path class="st0" d="M64.39,47.85c2.18,0,4.05,0.77,5.59,2.32c1.54,1.55,2.31,3.41,2.31,5.6c0,2.18-0.77,4.05-2.31,5.59
					c-1.54,1.55-3.4,2.32-5.59,2.32c-2.18,0-4.04-0.77-5.58-2.32c-1.55-1.55-2.32-3.41-2.32-5.59c0-2.18,0.77-4.05,2.32-5.6
					C60.35,48.63,62.21,47.85,64.39,47.85z M60.88,52.27c-0.97,0.97-1.45,2.14-1.45,3.5c0,1.37,0.48,2.54,1.45,3.5
					c0.97,0.96,2.14,1.44,3.51,1.44c1.37,0,2.54-0.48,3.51-1.44c0.97-0.96,1.45-2.13,1.45-3.5c0-1.36-0.48-2.53-1.45-3.5
					c-0.97-0.97-2.14-1.46-3.51-1.46C63.02,50.81,61.85,51.3,60.88,52.27z"/>
			</g>
			<g>
				<path class="st0" d="M38.76,25.89c1.9-0.63,3.82-1.34,5.75-2.1V8.8c0-2.03,0.31-3.35,0.93-3.95c0.62-0.61,1.97-0.99,4.05-1.13
					V2.66h-15.7v1.05c2.1,0.15,3.46,0.53,4.06,1.13c0.61,0.61,0.91,1.93,0.91,3.95v12.52h-8.61v2h8.61V25.89z"/>
				<path class="st0" d="M44.51,33.99V27.5c-1.93,0.9-3.85,1.73-5.75,2.51v3.31c0,2.44-0.27,3.95-0.82,4.54
					c-0.54,0.59-1.93,0.99-4.16,1.21v1.05h15.7v-1.05c-2.08-0.18-3.43-0.56-4.05-1.14C44.82,37.36,44.51,36.04,44.51,33.99z"/>
			</g>
			<g>
				<path class="st0" d="M67.46,33.99V14.24c-1.88,1.32-3.8,2.61-5.75,3.84v3.24h-5.36c-1.14,0.66-2.29,1.31-3.45,1.94v0.06h8.8v10
					c0,2.44-0.27,3.95-0.82,4.54c-0.54,0.59-1.93,0.99-4.16,1.21v1.05h15.7v-1.05c-2.08-0.18-3.43-0.56-4.05-1.14
					C67.77,37.36,67.46,36.04,67.46,33.99z"/>
				<path class="st0" d="M61.71,8.8v6.62c1.96-1.15,3.89-2.34,5.75-3.58V8.8c0-2.03,0.31-3.35,0.93-3.95
					c0.62-0.61,1.97-0.99,4.05-1.13V2.66h-15.7v1.05c2.1,0.15,3.46,0.53,4.06,1.13C61.41,5.46,61.71,6.77,61.71,8.8z"/>
			</g>
			<g>
				<path class="st0" d="M14.94,4.83L14.9,4.87c0.61,0.62,0.91,1.93,0.91,3.94v21.05c0.64,0.04,1.3,0.06,1.99,0.06
					c1.2,0,2.47-0.07,3.76-0.18V8.8c0-2.03,0.31-3.35,0.94-3.95c0.62-0.61,1.97-0.99,4.04-1.13V2.66h-15.7v1.05
					c2.06,0.15,3.4,0.52,4.03,1.12H14.94z"/>
				<path class="st0" d="M21.62,35.38c-2.1,0.42-4.11,0.71-6.01,0.87c-0.14,0.77-0.35,1.31-0.63,1.6c-0.55,0.58-1.94,0.99-4.15,1.22
					v1.05h15.7v-1.05c-2.07-0.16-3.42-0.54-4.04-1.13C22.03,37.51,21.74,36.65,21.62,35.38z"/>
			</g>
		</g>
		<path class="st1" d="M77.15,5.65C60.52,19.7,34.68,30.74,17.8,30.74C0.92,30.74-0.91,19.7,13,5.65h-0.03
			C-4.03,22.37-4.47,35.57,12.55,35.57s45.29-13.2,64.64-29.91H77.15z"/>
	</g>
</g>
</svg>
