<?xml version="1.0" encoding="utf-8"?>
<!-- Generator: Adobe Illustrator 25.0.1, SVG Export Plug-In . SVG Version: 6.00 Build 0)  -->
<svg version="1.1" id="圖層_1" xmlns="http://www.w3.org/2000/svg" xmlns:xlink="http://www.w3.org/1999/xlink" x="0px" y="0px"
	 viewBox="0 0 77.19 61.02" style="enable-background:new 0 0 77.19 61.02;" xml:space="preserve">
<style type="text/css">
	.st0{fill:#004097;}
	.st1{fill:#C6000B;}
</style>
<g>
	<g>
		<g>
			<path class="st0" d="M23.6,47.36v-1h2.89v14.3H23.6v-1.79c-1.39,1.43-3,2.15-4.83,2.15c-2.18,0-4.05-0.77-5.59-2.31
				c-1.54-1.54-2.31-3.4-2.31-5.59c0-2.18,0.77-4.05,2.31-5.59c1.54-1.54,3.4-2.31,5.59-2.31C20.6,45.22,22.21,45.93,23.6,47.36z
				 M23.6,54.17v-2.11c-0.17-0.9-0.61-1.71-1.33-2.44c-0.97-0.96-2.14-1.44-3.5-1.44c-1.37,0-2.54,0.48-3.51,1.44
				c-0.97,0.96-1.45,2.13-1.45,3.5c0,1.36,0.48,2.52,1.45,3.49c0.97,0.97,2.14,1.45,3.51,1.45c1.36,0,2.53-0.48,3.5-1.44
				C22.99,55.88,23.43,55.07,23.6,54.17z"/>
			<path class="st0" d="M36.72,60.84c-1.8,0-3.26-0.55-4.36-1.65c-1.1-1.1-1.67-2.48-1.69-4.14v-8.69h2.89v8.58
				c0,0.82,0.3,1.53,0.9,2.12c0.6,0.59,1.35,0.89,2.25,0.89c0.82,0,1.54-0.29,2.15-0.88c0.61-0.59,0.91-1.3,0.91-2.13v-8.58h2.87
				v8.69c-0.03,1.66-0.59,3.04-1.68,4.14C39.85,60.29,38.44,60.84,36.72,60.84z"/>
			<path class="st0" d="M48.54,46.36V41h2.87v5.36h2.57v2.87h-2.57v11.41h-2.87V49.23h-2.57v-2.87H48.54z"/>
			<path class="st0" d="M64.39,45.19c2.18,0,4.05,0.77,5.59,2.32c1.54,1.55,2.31,3.41,2.31,5.6c0,2.18-0.77,4.05-2.31,5.59
				c-1.54,1.55-3.4,2.32-5.59,2.32c-2.18,0-4.04-0.77-5.58-2.32c-1.55-1.55-2.32-3.41-2.32-5.59c0-2.18,0.77-4.05,2.32-5.6
				C60.35,45.96,62.21,45.19,64.39,45.19z M60.88,49.6c-0.97,0.97-1.45,2.14-1.45,3.5c0,1.37,0.48,2.54,1.45,3.5
				c0.97,0.96,2.14,1.44,3.51,1.44c1.37,0,2.54-0.48,3.51-1.44c0.97-0.96,1.45-2.13,1.45-3.5c0-1.36-0.48-2.53-1.45-3.5
				c-0.97-0.97-2.14-1.46-3.51-1.46C63.02,48.15,61.85,48.63,60.88,49.6z"/>
		</g>
		<g>
			<path class="st0" d="M38.76,23.23c1.9-0.63,3.82-1.34,5.75-2.1V6.14c0-2.03,0.31-3.35,0.93-3.95c0.62-0.61,1.97-0.99,4.05-1.13V0
				h-15.7v1.05c2.1,0.15,3.46,0.53,4.06,1.13c0.61,0.61,0.91,1.93,0.91,3.95v12.52h-8.61v2h8.61V23.23z"/>
			<path class="st0" d="M44.51,31.33v-6.49c-1.93,0.9-3.85,1.73-5.75,2.51v3.31c0,2.44-0.27,3.95-0.82,4.54
				c-0.54,0.59-1.93,0.99-4.16,1.21v1.05h15.7v-1.05c-2.08-0.18-3.43-0.56-4.05-1.14C44.82,34.7,44.51,33.38,44.51,31.33z"/>
		</g>
		<g>
			<path class="st0" d="M67.46,31.33V11.57c-1.88,1.32-3.8,2.61-5.75,3.84v3.24h-5.36c-1.14,0.66-2.29,1.31-3.45,1.94v0.06h8.8v10
				c0,2.44-0.27,3.95-0.82,4.54c-0.54,0.59-1.93,0.99-4.16,1.21v1.05h15.7v-1.05c-2.08-0.18-3.43-0.56-4.05-1.14
				C67.77,34.7,67.46,33.38,67.46,31.33z"/>
			<path class="st0" d="M61.71,6.14v6.62c1.96-1.15,3.89-2.34,5.75-3.58V6.14c0-2.03,0.31-3.35,0.93-3.95
				C69,1.58,70.35,1.2,72.44,1.05V0h-15.7v1.05c2.1,0.15,3.46,0.53,4.06,1.13C61.41,2.79,61.71,4.11,61.71,6.14z"/>
		</g>
		<g>
			<path class="st0" d="M14.94,2.17L14.9,2.2c0.61,0.62,0.91,1.93,0.91,3.94v21.05c0.64,0.04,1.3,0.06,1.99,0.06
				c1.2,0,2.47-0.07,3.76-0.18V6.14c0-2.03,0.31-3.35,0.94-3.95c0.62-0.61,1.97-0.99,4.04-1.13V0h-15.7v1.05
				c2.06,0.15,3.4,0.52,4.03,1.12H14.94z"/>
			<path class="st0" d="M21.62,32.72c-2.1,0.42-4.11,0.71-6.01,0.87c-0.14,0.77-0.35,1.31-0.63,1.6c-0.55,0.58-1.94,0.99-4.15,1.22
				v1.05h15.7v-1.05c-2.07-0.16-3.42-0.54-4.04-1.13C22.03,34.85,21.74,33.99,21.62,32.72z"/>
		</g>
	</g>
	<path class="st1" d="M77.16,2.99C60.52,17.03,34.68,28.07,17.8,28.07S-0.91,17.03,13,2.99h-0.03C-4.03,19.7-4.47,32.9,12.55,32.9
		c17.01,0,45.29-13.2,64.64-29.91H77.16z"/>
</g>
</svg>
